<svg xmlns="http://www.w3.org/2000/svg" viewBox="0 0 273.55 273.54"><defs><style>.cls-1{fill:#db4437;}.cls-2{fill:#4285f4;}.cls-3{fill:#fff;}</style></defs><title>Fichier 1</title><g id="Calque_2" data-name="Calque 2"><g id="Calque_1-2" data-name="Calque 1"><path class="cls-1" d="M20.31,65.06A136.77,136.77,0,0,1,136.77,0V68.38a68.4,68.4,0,0,0-58.23,32.53Z"/><path class="cls-2" d="M136.77,0A136.77,136.77,0,1,1,20.31,65.06l58.23,35.85a68.38,68.38,0,1,0,58.23-32.53Z"/><path class="cls-3" d="M159,226.44a3.17,3.17,0,0,1-1,.77,2.65,2.65,0,0,1-1.2.28,2.58,2.58,0,0,1-2.48-1.61,4.38,4.38,0,0,1,0-3.5,2.83,2.83,0,0,1,1.07-1.24,3.14,3.14,0,0,1,1.63-.42,2.76,2.76,0,0,1,2.33,1.11,4.84,4.84,0,0,1,.86,3v.36a6.46,6.46,0,0,1-1.16,4.25,4.43,4.43,0,0,1-3.47,1.36h-.25v-1.07h.28a3.44,3.44,0,0,0,2.39-.81A3.52,3.52,0,0,0,159,226.44Zm-2,0a1.92,1.92,0,0,0,1.17-.39,2.2,2.2,0,0,0,.8-1v-.5a3.34,3.34,0,0,0-.55-2,1.61,1.61,0,0,0-1.35-.79,1.65,1.65,0,0,0-1.36.65,2.54,2.54,0,0,0-.5,1.67,2.76,2.76,0,0,0,.48,1.68A1.56,1.56,0,0,0,157,226.44Zm7-1.22h.93a2,2,0,0,0,1.41-.47,1.56,1.56,0,0,0,.52-1.23,1.54,1.54,0,0,0-1.74-1.75,1.81,1.81,0,0,0-1.31.47,1.64,1.64,0,0,0-.49,1.23H162a2.56,2.56,0,0,1,.86-2,3.18,3.18,0,0,1,2.2-.78,3.07,3.07,0,0,1,2.2.75,2.67,2.67,0,0,1,.8,2.06,2.22,2.22,0,0,1-.42,1.27,2.41,2.41,0,0,1-1.14.91,2.38,2.38,0,0,1,1.26.87,2.29,2.29,0,0,1,.46,1.45,2.76,2.76,0,0,1-.88,2.15,3.29,3.29,0,0,1-2.28.78,3.4,3.4,0,0,1-2.28-.75,2.58,2.58,0,0,1-.88-2h1.29a1.68,1.68,0,0,0,.5,1.27,2,2,0,0,0,1.37.47,1.93,1.93,0,0,0,1.41-.49,1.86,1.86,0,0,0,.48-1.37,1.68,1.68,0,0,0-.53-1.33,2.33,2.33,0,0,0-1.55-.49H164Zm9.23,1.55a10.67,10.67,0,0,1,.41-3,8.78,8.78,0,0,1,1.23-2.58,5.33,5.33,0,0,1,1.72-1.66l.25.85a5.44,5.44,0,0,0-1.64,2.34,10.14,10.14,0,0,0-.69,3.5v.59a10.21,10.21,0,0,0,1,4.58,5.48,5.48,0,0,0,1.38,1.81l-.25.78a5.47,5.47,0,0,1-1.75-1.7A9.54,9.54,0,0,1,173.2,226.77Zm11-3.31a2.28,2.28,0,0,1-.39,1.32,2.62,2.62,0,0,1-1.06.91,2.88,2.88,0,0,1,1.23,1,2.39,2.39,0,0,1,.46,1.45,2.59,2.59,0,0,1-.88,2.06,3.29,3.29,0,0,1-2.28.77,3.37,3.37,0,0,1-2.31-.77,2.66,2.66,0,0,1-.86-2.06,2.51,2.51,0,0,1,.44-1.45,2.66,2.66,0,0,1,1.22-1,2.66,2.66,0,0,1-1.05-.91,2.4,2.4,0,0,1-.38-1.32,2.58,2.58,0,0,1,.8-2,3,3,0,0,1,2.14-.75,2.94,2.94,0,0,1,2.11.75A2.55,2.55,0,0,1,184.15,223.46Zm-1,4.64a1.79,1.79,0,0,0-.53-1.35,1.89,1.89,0,0,0-1.39-.53,1.82,1.82,0,0,0-1.36.52,1.86,1.86,0,0,0-.51,1.37,1.73,1.73,0,0,0,.5,1.33,2.22,2.22,0,0,0,2.78,0A1.79,1.79,0,0,0,183.12,228.1Zm-1.89-6.33a1.67,1.67,0,0,0-1.22.47,1.92,1.92,0,0,0,0,2.47,1.64,1.64,0,0,0,1.21.47,1.6,1.6,0,0,0,1.21-.47,1.67,1.67,0,0,0,.46-1.22,1.71,1.71,0,0,0-.47-1.24A1.59,1.59,0,0,0,181.23,221.77Zm6.74,3.45h.93a2,2,0,0,0,1.41-.47,1.56,1.56,0,0,0,.52-1.23,1.54,1.54,0,0,0-1.74-1.75,1.81,1.81,0,0,0-1.31.47,1.64,1.64,0,0,0-.49,1.23H186a2.56,2.56,0,0,1,.86-2,3.18,3.18,0,0,1,2.2-.78,3.07,3.07,0,0,1,2.2.75,2.67,2.67,0,0,1,.8,2.06,2.22,2.22,0,0,1-.42,1.27,2.41,2.41,0,0,1-1.14.91,2.38,2.38,0,0,1,1.26.87,2.29,2.29,0,0,1,.46,1.45,2.76,2.76,0,0,1-.88,2.15,3.29,3.29,0,0,1-2.28.78,3.4,3.4,0,0,1-2.28-.75,2.58,2.58,0,0,1-.88-2h1.29a1.68,1.68,0,0,0,.5,1.27,2,2,0,0,0,1.37.47,1.93,1.93,0,0,0,1.41-.49,1.86,1.86,0,0,0,.48-1.37,1.68,1.68,0,0,0-.53-1.33,2.33,2.33,0,0,0-1.55-.49H188Zm6.31,4.94a.8.8,0,0,1,.19-.55.8.8,0,0,1,1.39.55.72.72,0,0,1-.21.53,1,1,0,0,1-1.18,0A.75.75,0,0,1,194.28,230.16Zm9.87-6.7a2.28,2.28,0,0,1-.39,1.32,2.62,2.62,0,0,1-1.06.91,2.88,2.88,0,0,1,1.23,1,2.39,2.39,0,0,1,.46,1.45,2.59,2.59,0,0,1-.88,2.06,3.29,3.29,0,0,1-2.28.77,3.37,3.37,0,0,1-2.31-.77,2.66,2.66,0,0,1-.86-2.06,2.51,2.51,0,0,1,.44-1.45,2.66,2.66,0,0,1,1.22-1,2.66,2.66,0,0,1-1.05-.91,2.4,2.4,0,0,1-.38-1.32,2.58,2.58,0,0,1,.8-2,3,3,0,0,1,2.14-.75,2.94,2.94,0,0,1,2.11.75A2.55,2.55,0,0,1,204.15,223.46Zm-1,4.64a1.79,1.79,0,0,0-.53-1.35,1.89,1.89,0,0,0-1.39-.53,1.82,1.82,0,0,0-1.36.52,1.86,1.86,0,0,0-.51,1.37,1.73,1.73,0,0,0,.5,1.33,2.22,2.22,0,0,0,2.78,0A1.79,1.79,0,0,0,203.12,228.1Zm-1.89-6.33a1.67,1.67,0,0,0-1.22.47,1.92,1.92,0,0,0,0,2.47,1.64,1.64,0,0,0,1.21.47,1.6,1.6,0,0,0,1.21-.47,1.67,1.67,0,0,0,.46-1.22,1.71,1.71,0,0,0-.47-1.24A1.59,1.59,0,0,0,201.23,221.77Zm4.78,1a2,2,0,0,1,.57-1.47,2,2,0,0,1,1.46-.58,2,2,0,0,1,1.49.6,2.06,2.06,0,0,1,.56,1.5v.48a2,2,0,0,1-.58,1.48,1.94,1.94,0,0,1-1.45.57,2,2,0,0,1-1.47-.57,2.07,2.07,0,0,1-.58-1.53Zm.94.53a1.3,1.3,0,0,0,.3.88,1.08,1.08,0,0,0,.81.34,1,1,0,0,0,.78-.33,1.31,1.31,0,0,0,.3-.92v-.5a1.3,1.3,0,0,0-.3-.88,1,1,0,0,0-.8-.34,1,1,0,0,0-.79.34,1.35,1.35,0,0,0-.3.91Zm3.91,5.08a2.06,2.06,0,0,1,3.5-1.47,2,2,0,0,1,.57,1.52v.48a2,2,0,0,1-.57,1.47,2,2,0,0,1-1.46.58,2,2,0,0,1-2-2.1Zm.95.53a1.35,1.35,0,0,0,.3.89,1,1,0,0,0,.79.34,1,1,0,0,0,.8-.34,1.36,1.36,0,0,0,.3-.92v-.5a1.26,1.26,0,0,0-.32-.89,1,1,0,0,0-.78-.35,1,1,0,0,0-.79.35,1.34,1.34,0,0,0-.3.92Zm-3.45,1.16-.72-.46,4.86-7.78.72.45Zm10.81-3.22a10.51,10.51,0,0,1-.41,2.92,8.26,8.26,0,0,1-1.22,2.58,5.4,5.4,0,0,1-1.71,1.68l-.27-.78a5.44,5.44,0,0,0,1.69-2.5,11,11,0,0,0,.65-3.76v-.22a10.75,10.75,0,0,0-.31-2.67,8.75,8.75,0,0,0-.83-2.21,5,5,0,0,0-1.2-1.53l.27-.78a5.45,5.45,0,0,1,1.7,1.67,8.53,8.53,0,0,1,1.23,2.58A10.86,10.86,0,0,1,219.17,226.85Z"/><path class="cls-3" d="M58.23,51.72H57V43.3l-2.56.92V43.08L58,41.72h.21Zm9.87-7.36a2.34,2.34,0,0,1-.39,1.33,2.68,2.68,0,0,1-1.06.9,2.88,2.88,0,0,1,1.23,1A2.39,2.39,0,0,1,68.34,49a2.59,2.59,0,0,1-.88,2.06,3.29,3.29,0,0,1-2.28.77,3.37,3.37,0,0,1-2.31-.77A2.66,2.66,0,0,1,62,49a2.51,2.51,0,0,1,.44-1.45,2.61,2.61,0,0,1,1.22-1,2.72,2.72,0,0,1-1.05-.9,2.46,2.46,0,0,1-.38-1.33,2.58,2.58,0,0,1,.8-2,3,3,0,0,1,2.14-.75,2.94,2.94,0,0,1,2.11.75A2.55,2.55,0,0,1,68.1,44.36Zm-1,4.64a1.83,1.83,0,0,0-.53-1.35,1.89,1.89,0,0,0-1.39-.53A1.79,1.79,0,0,0,63.27,49a1.76,1.76,0,0,0,.5,1.33,1.94,1.94,0,0,0,1.41.49,1.89,1.89,0,0,0,1.38-.49A1.79,1.79,0,0,0,67.07,49Zm-1.89-6.33a1.66,1.66,0,0,0-1.22.47,1.92,1.92,0,0,0,0,2.47,1.79,1.79,0,0,0,2.42,0,1.65,1.65,0,0,0,.46-1.22,1.71,1.71,0,0,0-.47-1.24A1.59,1.59,0,0,0,65.18,42.67Zm8,5a10.72,10.72,0,0,1,.41-3,8.78,8.78,0,0,1,1.23-2.58,5.44,5.44,0,0,1,1.72-1.66l.25.85a5.44,5.44,0,0,0-1.64,2.34,10.14,10.14,0,0,0-.69,3.5v.59a10.21,10.21,0,0,0,1,4.58,5.48,5.48,0,0,0,1.38,1.81l-.25.79a5.52,5.52,0,0,1-1.75-1.71A9.54,9.54,0,0,1,73.15,47.67Zm9.08,4H81V43.3l-2.56.92V43.08L82,41.72h.21Zm8.81-10v1.07h-.23a3.36,3.36,0,0,0-2.36.87,3.6,3.6,0,0,0-1,2.39,2.74,2.74,0,0,1,2.16-.9,2.53,2.53,0,0,1,2.06.92,3.48,3.48,0,0,1,.78,2.36,3.54,3.54,0,0,1-.84,2.47A3.07,3.07,0,0,1,87,50.76a4.38,4.38,0,0,1-.89-2.82v-.49a6.57,6.57,0,0,1,1.17-4.2,4.29,4.29,0,0,1,3.49-1.49Zm-1.67,4.49a2,2,0,0,0-1.19.39,2,2,0,0,0-.76,1v.47a3.32,3.32,0,0,0,.54,2,1.69,1.69,0,0,0,1.39.75,1.63,1.63,0,0,0,1.35-.62,2.7,2.7,0,0,0,.48-1.66,2.61,2.61,0,0,0-.5-1.66A1.58,1.58,0,0,0,89.37,46.25Zm4.86,4.81a.8.8,0,0,1,.19-.55.8.8,0,0,1,1.39.55.72.72,0,0,1-.21.53.93.93,0,0,1-1.18,0A.75.75,0,0,1,94.23,51.06Zm10.36.66H98.07v-.91L101.51,47a9.27,9.27,0,0,0,1.06-1.4,2.37,2.37,0,0,0,.3-1.14,1.73,1.73,0,0,0-.49-1.27,1.63,1.63,0,0,0-1.25-.5,2,2,0,0,0-1.46.53,2.06,2.06,0,0,0-.52,1.5H97.88a3,3,0,0,1,.88-2.22,3.27,3.27,0,0,1,2.37-.86,3.1,3.1,0,0,1,2.19.74,2.46,2.46,0,0,1,.81,1.94c0,1-.62,2.14-1.87,3.5L99.6,50.69h5Zm1.37-8a2.06,2.06,0,0,1,.56-1.47,2,2,0,0,1,1.47-.58,2,2,0,0,1,1.49.6,2.06,2.06,0,0,1,.56,1.5v.48a2,2,0,0,1-.58,1.49,2,2,0,0,1-1.45.56,2.06,2.06,0,0,1-1.47-.56,2.11,2.11,0,0,1-.58-1.54Zm.94.53a1.29,1.29,0,0,0,.3.88,1,1,0,0,0,.81.34,1,1,0,0,0,.78-.33,1.31,1.31,0,0,0,.3-.92v-.5a1.26,1.26,0,0,0-.3-.87,1.08,1.08,0,0,0-1.59,0,1.3,1.3,0,0,0-.3.9Zm3.91,5.08a2.06,2.06,0,0,1,3.5-1.47,2,2,0,0,1,.57,1.52v.48a2,2,0,0,1-.57,1.47,1.94,1.94,0,0,1-1.46.58,1.94,1.94,0,0,1-2-2.1Zm1,.53a1.33,1.33,0,0,0,.3.89,1,1,0,0,0,.79.35,1,1,0,0,0,.8-.35,1.34,1.34,0,0,0,.3-.92v-.5a1.28,1.28,0,0,0-.32-.89,1,1,0,0,0-.78-.34,1,1,0,0,0-.79.34,1.36,1.36,0,0,0-.3.92ZM108.31,51l-.72-.46,4.86-7.78.72.46Zm10.81-3.22a10.51,10.51,0,0,1-.41,2.92,8.26,8.26,0,0,1-1.22,2.58,5.47,5.47,0,0,1-1.72,1.69l-.26-.79a5.44,5.44,0,0,0,1.69-2.5,11,11,0,0,0,.65-3.76v-.22a10.75,10.75,0,0,0-.31-2.67,8.67,8.67,0,0,0-.83-2.2,5,5,0,0,0-1.2-1.54l.26-.78a5.37,5.37,0,0,1,1.71,1.67,8.76,8.76,0,0,1,1.23,2.58A10.91,10.91,0,0,1,119.12,47.75Z"/></g></g></svg>