<svg xmlns="http://www.w3.org/2000/svg" viewBox="0 0 273.55 273.54"><defs><style>.cls-1{fill:#db4437;}.cls-2{fill:#4285f4;}.cls-3{fill:#fff;}</style></defs><title>Fichier 1</title><g id="Calque_2" data-name="Calque 2"><g id="Calque_1-2" data-name="Calque 1"><path class="cls-1" d="M34.1,46.41A136.79,136.79,0,0,1,136.77,0V68.38A68.42,68.42,0,0,0,85.43,91.59Z"/><path class="cls-2" d="M136.77,0A136.76,136.76,0,1,1,34.1,46.41L85.43,91.59a68.39,68.39,0,1,0,51.34-23.21Z"/><path class="cls-3" d="M151.19,230.36a3.25,3.25,0,0,1-.95.77,2.73,2.73,0,0,1-1.21.28,2.69,2.69,0,0,1-1.5-.42,2.82,2.82,0,0,1-1-1.19,4.49,4.49,0,0,1,0-3.5,2.79,2.79,0,0,1,1.08-1.24,3.1,3.1,0,0,1,1.62-.42,2.76,2.76,0,0,1,2.33,1.11,4.84,4.84,0,0,1,.86,3v.36a6.4,6.4,0,0,1-1.16,4.25,4.41,4.41,0,0,1-3.46,1.36h-.25v-1.07h.28a3.46,3.46,0,0,0,2.39-.81A3.52,3.52,0,0,0,151.19,230.36Zm-1.95,0a2,2,0,0,0,1.17-.39,2.34,2.34,0,0,0,.8-1v-.5a3.42,3.42,0,0,0-.55-2,1.64,1.64,0,0,0-1.36-.79,1.66,1.66,0,0,0-1.36.65,2.6,2.6,0,0,0-.5,1.67,2.76,2.76,0,0,0,.48,1.68A1.58,1.58,0,0,0,149.24,230.36Zm10.07-5.58v1.07h-.23a3.36,3.36,0,0,0-2.36.87,3.64,3.64,0,0,0-1,2.39,2.74,2.74,0,0,1,2.15-.91,2.52,2.52,0,0,1,2.06.93,4,4,0,0,1-.06,4.82,3.06,3.06,0,0,1-4.55-.17,4.39,4.39,0,0,1-.89-2.83v-.48a6.51,6.51,0,0,1,1.18-4.2,4.28,4.28,0,0,1,3.48-1.49Zm-1.67,4.49a2.17,2.17,0,0,0-1.95,1.36v.47a3.25,3.25,0,0,0,.55,2,1.68,1.68,0,0,0,1.39.75,1.59,1.59,0,0,0,1.34-.63,2.65,2.65,0,0,0,.49-1.65,2.61,2.61,0,0,0-.5-1.66A1.61,1.61,0,0,0,157.64,229.27Zm7.78,1.42a10.67,10.67,0,0,1,.41-2.95,8.78,8.78,0,0,1,1.23-2.58,5.43,5.43,0,0,1,1.72-1.66l.25.85a5.52,5.52,0,0,0-1.64,2.34,10.38,10.38,0,0,0-.68,3.5l0,.59a10.07,10.07,0,0,0,1,4.58,5.33,5.33,0,0,0,1.37,1.81l-.25.78a5.58,5.58,0,0,1-1.75-1.7A9.54,9.54,0,0,1,165.42,230.69Zm11-3.31a2.28,2.28,0,0,1-.39,1.32,2.65,2.65,0,0,1-1.07.91,2.91,2.91,0,0,1,1.24,1,2.45,2.45,0,0,1,.45,1.45,2.61,2.61,0,0,1-.87,2.06,3.33,3.33,0,0,1-2.28.77,3.42,3.42,0,0,1-2.32-.77,2.66,2.66,0,0,1-.86-2.06,2.51,2.51,0,0,1,.44-1.45,2.66,2.66,0,0,1,1.22-1,2.66,2.66,0,0,1-1.05-.91,2.39,2.39,0,0,1-.37-1.32,2.57,2.57,0,0,1,.79-2,3.06,3.06,0,0,1,2.15-.75,2.94,2.94,0,0,1,2.1.75A2.52,2.52,0,0,1,176.38,227.38Zm-1,4.64a1.8,1.8,0,0,0-.54-1.35,1.88,1.88,0,0,0-1.39-.53,1.83,1.83,0,0,0-1.36.52,1.86,1.86,0,0,0-.51,1.37,1.76,1.76,0,0,0,.5,1.33,2,2,0,0,0,1.41.49,1.9,1.9,0,0,0,1.37-.49A1.79,1.79,0,0,0,175.35,232Zm-1.89-6.33a1.76,1.76,0,0,0-1.22,2.94,1.6,1.6,0,0,0,1.2.47,1.63,1.63,0,0,0,1.22-.47,1.7,1.7,0,0,0,.45-1.22,1.67,1.67,0,0,0-.47-1.24A1.58,1.58,0,0,0,173.46,225.69Zm9.85-.91v1.07h-.23a3.36,3.36,0,0,0-2.36.87,3.64,3.64,0,0,0-1,2.39,2.74,2.74,0,0,1,2.15-.91,2.52,2.52,0,0,1,2.06.93,4,4,0,0,1-.06,4.82,3.06,3.06,0,0,1-4.55-.17,4.39,4.39,0,0,1-.89-2.83v-.48a6.51,6.51,0,0,1,1.18-4.2,4.28,4.28,0,0,1,3.48-1.49Zm-1.67,4.49a2.17,2.17,0,0,0-1.95,1.36v.47a3.25,3.25,0,0,0,.55,2,1.68,1.68,0,0,0,1.39.75,1.59,1.59,0,0,0,1.34-.63,2.65,2.65,0,0,0,.49-1.65,2.61,2.61,0,0,0-.5-1.66A1.61,1.61,0,0,0,181.64,229.27Zm4.86,4.81a.8.8,0,0,1,.19-.55.79.79,0,0,1,.59-.22.73.73,0,0,1,.8.77.76.76,0,0,1-.2.53.81.81,0,0,1-.6.2.78.78,0,0,1-.59-.2A.75.75,0,0,1,186.5,234.08Zm4.42-4.33.52-5h5.09V226h-4l-.29,2.71a3.24,3.24,0,0,1,1.65-.42,2.74,2.74,0,0,1,2.16.9,3.47,3.47,0,0,1,.81,2.42A3.42,3.42,0,0,1,196,234a3,3,0,0,1-2.32.89,3.15,3.15,0,0,1-2.15-.74,3,3,0,0,1-1-2h1.21a2,2,0,0,0,.59,1.3,1.92,1.92,0,0,0,1.31.44,1.69,1.69,0,0,0,1.38-.6,2.51,2.51,0,0,0,.51-1.67A2.25,2.25,0,0,0,195,230a1.86,1.86,0,0,0-1.46-.61,2.1,2.1,0,0,0-1.29.36l-.33.26Zm7.32-3.06a2,2,0,0,1,.56-1.47,2,2,0,0,1,1.47-.58,1.93,1.93,0,0,1,1.48.6,2,2,0,0,1,.56,1.5v.48a2,2,0,0,1-.57,1.48,2,2,0,0,1-1.46.57,2,2,0,0,1-1.47-.57,2.07,2.07,0,0,1-.57-1.53Zm.93.53a1.3,1.3,0,0,0,.3.88,1.08,1.08,0,0,0,.81.34,1,1,0,0,0,.78-.33,1.32,1.32,0,0,0,.3-.92v-.5a1.29,1.29,0,0,0-.3-.88,1,1,0,0,0-.79-.34,1,1,0,0,0-.8.34,1.35,1.35,0,0,0-.3.91Zm3.91,5.08a2,2,0,0,1,2-2.05,1.93,1.93,0,0,1,1.47.58,2,2,0,0,1,.58,1.52v.48a2,2,0,0,1-.58,1.47,2,2,0,0,1-1.45.58,2,2,0,0,1-2-2.1Zm.95.53a1.35,1.35,0,0,0,.3.89,1,1,0,0,0,.8.34,1,1,0,0,0,.79-.34,1.36,1.36,0,0,0,.3-.92v-.5a1.25,1.25,0,0,0-.31-.89,1,1,0,0,0-.78-.35,1,1,0,0,0-.8.35,1.34,1.34,0,0,0-.3.92ZM200.58,234l-.72-.46,4.86-7.78.72.45Zm10.81-3.22a10.5,10.5,0,0,1-.4,2.92,8.49,8.49,0,0,1-1.22,2.58,5.42,5.42,0,0,1-1.72,1.68l-.27-.78a5.44,5.44,0,0,0,1.69-2.5,10.75,10.75,0,0,0,.66-3.76v-.22a10.74,10.74,0,0,0-.32-2.67,8.74,8.74,0,0,0-.82-2.21,5.22,5.22,0,0,0-1.21-1.53l.27-.78a5.34,5.34,0,0,1,1.7,1.67,8.55,8.55,0,0,1,1.24,2.58A10.86,10.86,0,0,1,211.39,230.77Z"/><path class="cls-3" d="M66,47.8H64.74V39.38l-2.57.92V39.16L65.8,37.8H66Zm4.42-5,.52-5H76V39H72l-.3,2.7a3.3,3.3,0,0,1,1.66-.42,2.74,2.74,0,0,1,2.16.9,3.48,3.48,0,0,1,.81,2.43,3.39,3.39,0,0,1-.84,2.42,3,3,0,0,1-2.32.89A3.15,3.15,0,0,1,71,47.2a3,3,0,0,1-1-2h1.21a2,2,0,0,0,.59,1.3,1.92,1.92,0,0,0,1.31.44,1.7,1.7,0,0,0,1.38-.6,2.51,2.51,0,0,0,.51-1.67,2.25,2.25,0,0,0-.54-1.59,1.86,1.86,0,0,0-1.46-.61,2.1,2.1,0,0,0-1.29.36l-.33.26Zm10.5.94a10.72,10.72,0,0,1,.41-3,8.78,8.78,0,0,1,1.23-2.58,5.55,5.55,0,0,1,1.72-1.66l.25.85a5.52,5.52,0,0,0-1.64,2.34,10.38,10.38,0,0,0-.69,3.5v.59a10.07,10.07,0,0,0,1,4.58,5.33,5.33,0,0,0,1.37,1.81l-.25.79a5.63,5.63,0,0,1-1.75-1.71A9.54,9.54,0,0,1,80.92,43.75Zm9.08,4H88.74V39.38l-2.57.92V39.16L89.8,37.8H90Zm5.69-5.6h.94a2,2,0,0,0,1.4-.47,1.74,1.74,0,0,0-1.22-3,1.81,1.81,0,0,0-1.31.47A1.63,1.63,0,0,0,95,40.45H93.75a2.58,2.58,0,0,1,.86-2,3.18,3.18,0,0,1,2.2-.78,3.1,3.1,0,0,1,2.21.75,2.71,2.71,0,0,1,.79,2.07,2.19,2.19,0,0,1-.42,1.26,2.41,2.41,0,0,1-1.14.91,2.5,2.5,0,0,1,1.27.87A2.35,2.35,0,0,1,100,45a2.74,2.74,0,0,1-.88,2.14,3.29,3.29,0,0,1-2.28.78,3.44,3.44,0,0,1-2.28-.75,2.55,2.55,0,0,1-.87-2h1.28a1.67,1.67,0,0,0,.5,1.27,2,2,0,0,0,1.37.47,1.69,1.69,0,0,0,1.89-1.86,1.65,1.65,0,0,0-.53-1.33,2.38,2.38,0,0,0-1.54-.49h-.94ZM102,47.14a.8.8,0,0,1,.19-.55.77.77,0,0,1,.59-.21.71.71,0,0,1,.8.76.76.76,0,0,1-.2.53.81.81,0,0,1-.6.21.77.77,0,0,1-.59-.21A.75.75,0,0,1,102,47.14Zm4.42-4.33.52-5H112V39h-4l-.3,2.7a3.3,3.3,0,0,1,1.66-.42,2.74,2.74,0,0,1,2.16.9,3.48,3.48,0,0,1,.81,2.43,3.39,3.39,0,0,1-.84,2.42,3,3,0,0,1-2.32.89A3.15,3.15,0,0,1,107,47.2a3,3,0,0,1-1-2h1.21a2,2,0,0,0,.59,1.3,1.92,1.92,0,0,0,1.31.44,1.7,1.7,0,0,0,1.38-.6,2.51,2.51,0,0,0,.51-1.67,2.25,2.25,0,0,0-.54-1.59,1.86,1.86,0,0,0-1.46-.61,2.1,2.1,0,0,0-1.29.36l-.33.26Zm7.32-3.06a2,2,0,0,1,2-2,1.93,1.93,0,0,1,1.48.6,2,2,0,0,1,.56,1.5v.48a2,2,0,0,1-.57,1.49,2,2,0,0,1-1.46.56,2.06,2.06,0,0,1-1.47-.56,2.11,2.11,0,0,1-.57-1.54Zm.93.53a1.29,1.29,0,0,0,.3.88,1,1,0,0,0,.81.34,1,1,0,0,0,.78-.33,1.31,1.31,0,0,0,.3-.92v-.5a1.26,1.26,0,0,0-.3-.87,1,1,0,0,0-.79-.35,1,1,0,0,0-.8.35,1.3,1.3,0,0,0-.3.9Zm3.91,5.08a2,2,0,0,1,2-2,2,2,0,0,1,1.47.58,2.05,2.05,0,0,1,.58,1.52v.48a2,2,0,0,1-.58,1.47,1.93,1.93,0,0,1-1.45.58,2,2,0,0,1-2-2.1Zm1,.53a1.33,1.33,0,0,0,.3.89,1.08,1.08,0,0,0,1.59,0,1.34,1.34,0,0,0,.3-.92v-.5a1.27,1.27,0,0,0-.31-.89,1,1,0,0,0-.78-.34,1,1,0,0,0-.8.34,1.36,1.36,0,0,0-.3.92Zm-3.45,1.16-.72-.46,4.86-7.78.72.46Zm10.81-3.22a10.5,10.5,0,0,1-.4,2.92,8.73,8.73,0,0,1-1.22,2.58A5.68,5.68,0,0,1,123.55,51l-.27-.79a5.44,5.44,0,0,0,1.69-2.5,10.75,10.75,0,0,0,.66-3.76v-.22a10.74,10.74,0,0,0-.32-2.67,8.66,8.66,0,0,0-.82-2.2,5.14,5.14,0,0,0-1.21-1.54l.27-.78a5.45,5.45,0,0,1,1.7,1.67,9,9,0,0,1,1.24,2.58A10.91,10.91,0,0,1,126.89,43.83Z"/></g></g></svg>